<svg xmlns="http://www.w3.org/2000/svg" width="336.001" height="336.001" viewBox="0 0 336.001 336.001">
  <g id="LOGO" transform="translate(-264 -201)">
    <g id="Group_15" data-name="Group 15">
      <g id="Subtraction_1" data-name="Subtraction 1" transform="translate(2053 -1466)" fill="none">
        <path d="M-1621,2003a169.243,169.243,0,0,1-33.858-3.413,167.152,167.152,0,0,1-31.535-9.789,168,168,0,0,1-28.537-15.49,169.205,169.205,0,0,1-24.864-20.514,169.21,169.21,0,0,1-20.514-24.864,168.016,168.016,0,0,1-15.49-28.537,167.161,167.161,0,0,1-9.789-31.535A169.229,169.229,0,0,1-1789,1835a169.231,169.231,0,0,1,3.413-33.858,167.157,167.157,0,0,1,9.789-31.535,168.005,168.005,0,0,1,15.49-28.537,169.212,169.212,0,0,1,20.514-24.864,169.212,169.212,0,0,1,24.864-20.514,168,168,0,0,1,28.537-15.49,167.157,167.157,0,0,1,31.535-9.789A169.231,169.231,0,0,1-1621,1667a169.229,169.229,0,0,1,33.858,3.413,167.15,167.15,0,0,1,31.535,9.789,168,168,0,0,1,28.537,15.49,169.212,169.212,0,0,1,24.864,20.514,169.216,169.216,0,0,1,20.514,24.864,168.005,168.005,0,0,1,15.49,28.537,167.157,167.157,0,0,1,9.789,31.535A169.231,169.231,0,0,1-1453,1835a169.229,169.229,0,0,1-3.413,33.858,167.161,167.161,0,0,1-9.789,31.535,168.016,168.016,0,0,1-15.49,28.537,169.207,169.207,0,0,1-20.514,24.864,169.205,169.205,0,0,1-24.864,20.514,168,168,0,0,1-28.537,15.49,167.156,167.156,0,0,1-31.535,9.789A169.241,169.241,0,0,1-1621,2003Zm-1-281a112.127,112.127,0,0,0-112,112,112.127,112.127,0,0,0,112,112,112.126,112.126,0,0,0,112-112A112.127,112.127,0,0,0-1622,1722Z" stroke="none"/>
        <path d="M -1621 1995.00048828125 C -1610.139038085938 1995.00048828125 -1599.287231445313 1993.90673828125 -1588.745971679688 1991.749633789063 C -1578.475952148438 1989.648071289063 -1568.374877929688 1986.512573242188 -1558.72314453125 1982.43017578125 C -1549.244140625 1978.4208984375 -1540.101196289063 1973.458129882813 -1531.548095703125 1967.679565429688 C -1523.073852539063 1961.95458984375 -1515.10498046875 1955.379638671875 -1507.862670898438 1948.137329101563 C -1500.620361328125 1940.895141601563 -1494.04541015625 1932.92626953125 -1488.320556640625 1924.4521484375 C -1482.5419921875 1915.89892578125 -1477.579223632813 1906.755859375 -1473.569946289063 1897.276977539063 C -1469.4873046875 1887.624267578125 -1466.351806640625 1877.523193359375 -1464.250366210938 1867.254150390625 C -1462.093383789063 1856.713623046875 -1460.999633789063 1845.86181640625 -1460.999633789063 1835.000122070313 C -1460.999633789063 1824.138549804688 -1462.093383789063 1813.286743164063 -1464.25048828125 1802.745971679688 C -1466.351806640625 1792.47705078125 -1469.4873046875 1782.3759765625 -1473.569946289063 1772.723510742188 C -1477.579345703125 1763.244018554688 -1482.542236328125 1754.10107421875 -1488.320556640625 1745.54833984375 C -1494.045043945313 1737.074584960938 -1500.6201171875 1729.105712890625 -1507.862548828125 1721.862915039063 C -1515.105224609375 1714.620483398438 -1523.074096679688 1708.045532226563 -1531.548095703125 1702.32080078125 C -1540.101196289063 1696.542236328125 -1549.244140625 1691.579467773438 -1558.72314453125 1687.570190429688 C -1568.375732421875 1683.487548828125 -1578.476806640625 1680.35205078125 -1588.745971679688 1678.250610351563 C -1599.286499023438 1676.093627929688 -1610.138305664063 1674.999877929688 -1621 1674.999877929688 C -1631.861572265625 1674.999877929688 -1642.71337890625 1676.093627929688 -1653.254150390625 1678.250732421875 C -1663.52294921875 1680.35205078125 -1673.6240234375 1683.487548828125 -1683.276611328125 1687.570190429688 C -1692.755615234375 1691.579345703125 -1701.898681640625 1696.542236328125 -1710.451904296875 1702.32080078125 C -1718.92578125 1708.045532226563 -1726.894653320313 1714.620483398438 -1734.13720703125 1721.86279296875 C -1741.379516601563 1729.105346679688 -1747.954467773438 1737.07421875 -1753.679443359375 1745.54833984375 C -1759.457641601563 1754.10107421875 -1764.42041015625 1763.244018554688 -1768.429931640625 1772.723388671875 C -1772.512451171875 1782.375732421875 -1775.648071289063 1792.476806640625 -1777.749389648438 1802.74609375 C -1779.906494140625 1813.286987304688 -1781.000244140625 1824.138793945313 -1781.000244140625 1835.000122070313 C -1781.000244140625 1845.861572265625 -1779.906494140625 1856.71337890625 -1777.749389648438 1867.254150390625 C -1775.648071289063 1877.5234375 -1772.512451171875 1887.62451171875 -1768.429931640625 1897.27685546875 C -1764.420654296875 1906.755859375 -1759.457885742188 1915.89892578125 -1753.679321289063 1924.4521484375 C -1747.954345703125 1932.926391601563 -1741.37939453125 1940.895263671875 -1734.13720703125 1948.137329101563 C -1726.894897460938 1955.379638671875 -1718.926025390625 1961.95458984375 -1710.451782226563 1967.6796875 C -1701.898681640625 1973.458251953125 -1692.755615234375 1978.421020507813 -1683.276611328125 1982.43017578125 C -1673.624389648438 1986.5126953125 -1663.5234375 1989.648315429688 -1653.254150390625 1991.749633789063 C -1642.712646484375 1993.90673828125 -1631.86083984375 1995.00048828125 -1621 1995.00048828125 M -1621.999877929688 1713.999755859375 C -1555.831909179688 1713.999755859375 -1502.000244140625 1767.831787109375 -1502.000244140625 1834.000244140625 C -1502.000244140625 1900.168334960938 -1555.831909179688 1953.999877929688 -1621.999877929688 1953.999877929688 C -1688.168334960938 1953.999877929688 -1742.000366210938 1900.168334960938 -1742.000366210938 1834.000244140625 C -1742.000366210938 1767.831787109375 -1688.168334960938 1713.999755859375 -1621.999877929688 1713.999755859375 M -1621 2003.00048828125 C -1632.398071289063 2003.00048828125 -1643.78955078125 2001.852172851563 -1654.85791015625 1999.587280273438 C -1665.644653320313 1997.380004882813 -1676.254638671875 1994.08642578125 -1686.39306640625 1989.798217773438 C -1696.347778320313 1985.587768554688 -1705.949096679688 1980.376342773438 -1714.930297851563 1974.30859375 C -1723.826171875 1968.298706054688 -1732.191528320313 1961.396728515625 -1739.794067382813 1953.794189453125 C -1747.396484375 1946.191772460938 -1754.298461914063 1937.826416015625 -1760.308349609375 1928.9306640625 C -1766.3759765625 1919.949462890625 -1771.58740234375 1910.34814453125 -1775.797973632813 1900.393310546875 C -1780.086181640625 1890.254638671875 -1783.379760742188 1879.644653320313 -1785.587036132813 1868.858032226563 C -1787.851928710938 1857.79052734375 -1789.000244140625 1846.399169921875 -1789.000244140625 1835.000122070313 C -1789.000244140625 1823.601196289063 -1787.851928710938 1812.209838867188 -1785.587036132813 1801.142211914063 C -1783.379760742188 1790.355590820313 -1780.086181640625 1779.74560546875 -1775.797973632813 1769.607055664063 C -1771.58740234375 1759.652221679688 -1766.3759765625 1750.05078125 -1760.308349609375 1741.06982421875 C -1754.298461914063 1732.173950195313 -1747.396484375 1723.80859375 -1739.794067382813 1716.2060546875 C -1732.191528320313 1708.603637695313 -1723.826171875 1701.70166015625 -1714.930297851563 1695.691772460938 C -1705.949096679688 1689.6240234375 -1696.347778320313 1684.41259765625 -1686.39306640625 1680.2021484375 C -1676.254516601563 1675.913940429688 -1665.64453125 1672.620361328125 -1654.85791015625 1670.4130859375 C -1643.790283203125 1668.148193359375 -1632.39892578125 1666.999877929688 -1621 1666.999877929688 C -1609.600952148438 1666.999877929688 -1598.209594726563 1668.148193359375 -1587.14208984375 1670.4130859375 C -1576.355224609375 1672.620361328125 -1565.745239257813 1675.913940429688 -1555.606811523438 1680.2021484375 C -1545.652099609375 1684.41259765625 -1536.05078125 1689.6240234375 -1527.069580078125 1695.691772460938 C -1518.173706054688 1701.70166015625 -1509.808349609375 1708.603637695313 -1502.205810546875 1716.2060546875 C -1494.603271484375 1723.808837890625 -1487.701293945313 1732.174072265625 -1481.691528320313 1741.06982421875 C -1475.623901367188 1750.05078125 -1470.412475585938 1759.652221679688 -1466.201904296875 1769.607055664063 C -1461.913696289063 1779.74560546875 -1458.6201171875 1790.355590820313 -1456.412841796875 1801.142211914063 C -1454.14794921875 1812.209838867188 -1452.999633789063 1823.601196289063 -1452.999633789063 1835.000122070313 C -1452.999633789063 1846.399169921875 -1454.14794921875 1857.79052734375 -1456.412841796875 1868.858032226563 C -1458.6201171875 1879.644653320313 -1461.913696289063 1890.254638671875 -1466.201904296875 1900.393310546875 C -1470.412475585938 1910.34814453125 -1475.623901367188 1919.949462890625 -1481.691528320313 1928.9306640625 C -1487.701293945313 1937.826293945313 -1494.603271484375 1946.191650390625 -1502.205810546875 1953.794189453125 C -1509.808349609375 1961.396728515625 -1518.173706054688 1968.298706054688 -1527.069580078125 1974.30859375 C -1536.05078125 1980.376342773438 -1545.652099609375 1985.587768554688 -1555.606811523438 1989.798217773438 C -1565.7451171875 1994.08642578125 -1576.355224609375 1997.3798828125 -1587.14208984375 1999.587280273438 C -1598.210327148438 2001.852172851563 -1609.601806640625 2003.00048828125 -1621 2003.00048828125 Z M -1621.999877929688 1721.999755859375 C -1683.757080078125 1721.999755859375 -1734.000366210938 1772.243041992188 -1734.000366210938 1834.000244140625 C -1734.000366210938 1895.757080078125 -1683.757080078125 1945.999877929688 -1621.999877929688 1945.999877929688 C -1560.243041992188 1945.999877929688 -1510.000244140625 1895.757080078125 -1510.000244140625 1834.000244140625 C -1510.000244140625 1772.243041992188 -1560.243041992188 1721.999755859375 -1621.999877929688 1721.999755859375 Z" stroke="none" fill="#fff"/>
      </g>
      <path id="Path_4" data-name="Path 4" d="M2173-1379h16l11.594,5.065v150.465l8.978,4.47H2221l3.295-4.47V-1243l7.9-3.094L2237-1243v32l-56-3.492-8-4.508v-160Z" transform="translate(-1789 1667)" fill="#fff"/>
      <path id="Subtraction_2" data-name="Subtraction 2" d="M-1757.039,1791.013h-20.433l-11.528-8,3.528-116.013h32l11.515,4.012,4.486,8v24l-3.049,8-4.951,8-4.745,4.367,4.745,3.632,8,4.986,3.774,6.1,4.226,4.91v20.228l-4.226,11.772-11.774,12.288-11.568,3.713h0Zm-7.541-60.092-4.891,52.092h8l11.255-8,4.745-3.154,3.515-9.7v-19.151l-3.515-8-8-4.091Zm3.109-55.661-3.109,43.754,6.1-3.174,5-4.826,5.051-8,2.949-8v-8l-2.949-8-5.051-3.753h-8Z" transform="translate(2217.472 -1375.012)" fill="#fff"/>
      <g id="Group_14" data-name="Group 14" transform="translate(0 -7)">
        <text id="L" transform="translate(353.611 271.04) rotate(-36)" fill="#fff" stroke="#fff" stroke-width="1" font-size="31" font-family="SegoeUI-Light, Segoe UI" font-weight="300"><tspan x="-7.099" y="0">L</tspan></text>
        <text id="A" transform="translate(373.611 258.414) rotate(-36)" fill="#fff" stroke="#fff" stroke-width="1" font-size="31" font-family="SegoeUI-Light, Segoe UI" font-weight="300"><tspan x="-9.748" y="0">A</tspan></text>
        <text id="B" transform="translate(400.841 248.359) rotate(-2)" fill="#fff" stroke="#fff" stroke-width="1" font-size="31" font-family="SegoeUI-Light, Segoe UI" font-weight="300"><tspan x="-8.431" y="0">B</tspan></text>
        <text id="O" transform="translate(426 248)" fill="#fff" stroke="#fff" stroke-width="1" font-size="31" font-family="SegoeUI-Light, Segoe UI" font-weight="300"><tspan x="-11.799" y="0">O</tspan></text>
        <text id="C" transform="translate(447.54 249.142) rotate(8)" fill="#fff" stroke="#fff" stroke-width="1" font-size="31" font-family="SegoeUI-Light, Segoe UI" font-weight="300"><tspan x="-9.627" y="0">C</tspan></text>
        <text id="A-2" data-name="A" transform="translate(470.354 251.438) rotate(20)" fill="#fff" stroke="#fff" stroke-width="1" font-size="31" font-family="SegoeUI-Light, Segoe UI" font-weight="300"><tspan x="-9.748" y="0">A</tspan></text>
        <text id="A-3" data-name="A" transform="matrix(0.848, 0.53, -0.53, 0.848, 510.946, 272.281)" fill="#fff" stroke="#fff" stroke-width="1" font-size="31" font-family="SegoeUI-Light, Segoe UI" font-weight="300"><tspan x="-9.748" y="0">A</tspan></text>
        <text id="N" transform="matrix(0.921, 0.391, -0.391, 0.921, 491.484, 261.142)" fill="#fff" stroke="#fff" stroke-width="1" font-size="31" font-family="SegoeUI-Light, Segoe UI" font-weight="300"><tspan x="-10.989" y="0">N</tspan></text>
      </g>
    </g>
  </g>
</svg>
